<?xml version="1.0" standalone="no"?>
<!DOCTYPE svg PUBLIC "-//W3C//DTD SVG 20010904//EN"
 "http://www.w3.org/TR/2001/REC-SVG-20010904/DTD/svg10.dtd">
<svg version="1.0" xmlns="http://www.w3.org/2000/svg"
 width="89.000000pt" height="39.000000pt" viewBox="0 0 89.000000 39.000000"
 preserveAspectRatio="xMidYMid meet">
<metadata>
Created by potrace 1.15, written by Peter Selinger 2001-2017
</metadata>
<g transform="translate(0.000000,39.000000) scale(0.100000,-0.100000)"
fill="#000000" stroke="none">
<path d="M116 197 c-37 -78 -68 -146 -68 -152 0 -5 5 -11 12 -13 6 -2 41 60
77 137 37 78 70 141 73 141 5 0 80 -145 80 -155 0 -2 -26 -5 -57 -7 -46 -2
-59 -7 -61 -20 -3 -16 5 -18 67 -18 l71 0 20 -40 c11 -22 27 -40 35 -40 8 0
15 2 15 5 0 3 -34 73 -75 155 -99 198 -97 198 -189 7z"/>
<path d="M480 335 c0 -3 60 -73 132 -156 79 -89 139 -148 148 -147 12 3 15 29
18 156 2 146 2 152 -17 152 -19 0 -21 -8 -23 -126 l-3 -125 -110 125 c-63 73
-117 126 -127 126 -10 0 -18 -2 -18 -5z"/>
</g>
</svg>
